<svg xmlns="http://www.w3.org/2000/svg" viewBox="0 0 200 180" width="200" height="180">
  <defs>
    <!-- 品牌蓝渐变 -->
    <linearGradient id="iconGradient" x1="0%" y1="0%" x2="100%" y2="100%">
      <stop offset="0%" style="stop-color:#1E40AF"/>
      <stop offset="50%" style="stop-color:#3B82F6"/>
      <stop offset="100%" style="stop-color:#60A5FA"/>
    </linearGradient>
  </defs>

  <!-- 图标版本 - 适合favicon和小尺寸显示 -->
  <g fill="url(#iconGradient)" stroke="#1E3A8A" stroke-width="2" stroke-linecap="round" stroke-linejoin="round">
    <!-- 左耳 -->
    <path d="M45 55 L35 25 L65 45 Q60 50 55 52 Q50 54 45 55"/>
    <!-- 右耳 -->
    <path d="M155 55 L165 25 L135 45 Q140 50 145 52 Q150 54 155 55"/>

    <!-- 头顶羽毛 -->
    <path d="M65 45 Q75 35 85 42 Q95 30 100 38 Q105 30 115 42 Q125 35 135 45" fill="none"/>

    <!-- 身体轮廓 -->
    <path d="M45 55
             Q30 70 25 95
             Q20 125 35 145
             Q40 150 50 145
             L55 140
             Q60 145 65 140
             L70 145
             Q80 150 100 150
             Q120 150 130 145
             L135 140
             Q140 145 145 140
             L150 145
             Q160 150 165 145
             Q180 125 175 95
             Q170 70 155 55
             Q130 40 100 40
             Q70 40 45 55"/>

    <!-- 左眼 -->
    <circle cx="72" cy="85" r="28" fill="#FFFFFF"/>
    <circle cx="72" cy="85" r="20" fill="none"/>
    <path d="M58 88 Q72 78 86 88" fill="none" stroke-width="2.5"/>

    <!-- 右眼 -->
    <circle cx="128" cy="85" r="28" fill="#FFFFFF"/>
    <circle cx="128" cy="85" r="20" fill="none"/>
    <path d="M114 88 Q128 78 142 88" fill="none" stroke-width="2.5"/>

    <!-- 喙 -->
    <path d="M92 105 L100 125 L108 105 Q100 110 92 105" fill="#F59E0B" stroke="#D97706"/>

    <!-- 翅膀 -->
    <path d="M35 100 Q25 115 30 135 Q35 140 40 135" fill="none"/>
    <path d="M165 100 Q175 115 170 135 Q165 140 160 135" fill="none"/>

    <!-- 脚 -->
    <path d="M70 150 L70 160 Q65 165 60 160 Q55 165 50 160 Q55 155 60 158 Q65 155 70 160" fill="none"/>
    <path d="M130 150 L130 160 Q135 165 140 160 Q145 165 150 160 Q145 155 140 158 Q135 155 130 160" fill="none"/>
  </g>
</svg>