<svg xmlns="http://www.w3.org/2000/svg" viewBox="0 0 32 32" fill="none">
  <circle cx="16" cy="16" r="16" fill="#E84142"/>
  <path d="M20.9 19.4h2.8c.6 0 .9 0 1.1-.2.2-.1.3-.4.3-.7 0-.3-.1-.5-.4-.8l-5.4-5.7c-.2-.3-.4-.4-.6-.4-.2 0-.5.1-.6.4l-2.3 2.5-3-3.2c-.2-.3-.4-.4-.6-.4-.2 0-.5.1-.6.4l-5.3 5.6c-.2.2-.3.5-.3.8 0 .3.1.6.3.7.2.1.5.2 1.1.2h2.8c1.1 0 1.7 0 2.2-.2.5-.2 1-.5 1.3-1 .1-.2.3-.4.4-.6.2-.3.4-.6.6-.9.1-.1.1-.2.2-.3l2.3 2.5-3.3 3.5c-.2.2-.3.5-.3.8 0 .3.1.6.3.7.2.1.5.2 1.1.2h2.8c1.1 0 1.7 0 2.2-.2.5-.2 1-.5 1.3-1 .3-.5.5-1.1.5-1.8 0-.7-.2-1.3-.5-1.8-.2-.3-.4-.6-.6-.9-.1-.1-.1-.2-.2-.3l2.2-2.4c.2.3.4.6.6.9.1.2.3.4.4.6.3.5.5 1.1.5 1.8 0 .7-.2 1.3-.5 1.8-.3.5-.7.8-1.3 1-.5.2-1.1.2-2.2.2z" fill="white"/>
</svg>