<svg xmlns="http://www.w3.org/2000/svg" viewBox="0 0 32 32" fill="none">
  <circle cx="16" cy="16" r="16" fill="#F7931A"/>
  <path d="M22.7 14.2c.3-2-1.2-3-3.3-3.8l.7-2.7-1.7-.4-.6 2.6c-.5-.1-.9-.3-1.4-.4l.6-2.6-1.7-.4-.7 2.7c-.4-.1-.8-.2-1.2-.3l0 0-2.4-.6-.5 1.7s1.3.3 1.3.3c.7.2.8.6.8 1l-.8 3.2c0 .1.1.1.2.1-.1 0-.2 0-.2-.1l-1.1 4.6c-.1.2-.3.6-.9.4 0 0-1.3-.3-1.3-.3l-.8 1.9 2.2.5c.4.1.8.2 1.2.3l-.7 2.8 1.7.4.7-2.7c.5.1.9.3 1.4.4l-.7 2.7 1.7.4.7-2.8c3.1.6 5.5-.3 6.5-2.5.8-1.7 0-2.7-1.2-3.3 1-.2 1.7-.8 1.9-2.1zm-3.4 4.6c-.6 2.3-4.4 1-5.7.7l1-4.2c1.3.3 5.4 1 4.7 3.5zm.6-4.7c-.5 2.1-3.7 1-4.8.8l.9-3.8c1.1.3 4.6.8 3.9 3z" fill="white"/>
</svg>