<svg xmlns="http://www.w3.org/2000/svg" viewBox="0 0 32 32" fill="none">
  <circle cx="16" cy="16" r="16" fill="#FF5A00"/>
  <path d="M16 6c-1.7 0-3 1.3-3 3 0 .8.3 1.5.8 2-.5.3-1.2.5-1.8.5-1.7 0-3 1.3-3 3s1.3 3 3 3c.6 0 1.3-.2 1.8-.5-.5.5-.8 1.2-.8 2 0 1.7 1.3 3 3 3s3-1.3 3-3c0-.8-.3-1.5-.8-2 .5.3 1.2.5 1.8.5 1.7 0 3-1.3 3-3s-1.3-3-3-3c-.6 0-1.3.2-1.8.5.5-.5.8-1.2.8-2 0-1.7-1.3-3-3-3zm0 2c.6 0 1 .4 1 1s-.4 1-1 1-1-.4-1-1 .4-1 1-1zm-4 5c.6 0 1 .4 1 1s-.4 1-1 1-1-.4-1-1 .4-1 1-1zm8 0c.6 0 1 .4 1 1s-.4 1-1 1-1-.4-1-1 .4-1 1-1zm-4 5c.6 0 1 .4 1 1s-.4 1-1 1-1-.4-1-1 .4-1 1-1z" fill="white"/>
</svg>