<svg xmlns="http://www.w3.org/2000/svg" viewBox="0 0 32 32" fill="none">
  <circle cx="16" cy="16" r="16" fill="url(#sol-gradient)"/>
  <path d="M10.2 20.3c.2-.2.5-.3.8-.3h11.3c.5 0 .7.6.4 1l-2.2 2.2c-.2.2-.5.3-.8.3H8.4c-.5 0-.7-.6-.4-1l2.2-2.2zm0-10c.2-.2.5-.3.8-.3h11.3c.5 0 .7.6.4 1l-2.2 2.2c-.2.2-.5.3-.8.3H8.4c-.5 0-.7-.6-.4-1l2.2-2.2zm12.5 5c.2-.2.2-.6 0-.8l-2.2-2.2c-.2-.2-.6-.2-.8 0l-9.5 9.5c-.2.2-.2.6 0 .8l2.2 2.2c.2.2.6.2.8 0l9.5-9.5z" fill="white"/>
  <defs>
    <linearGradient id="sol-gradient" x1="4" y1="28" x2="28" y2="4" gradientUnits="userSpaceOnUse">
      <stop stop-color="#9945FF"/>
      <stop offset="0.2" stop-color="#8752F3"/>
      <stop offset="0.4" stop-color="#5497D5"/>
      <stop offset="0.6" stop-color="#43B4CA"/>
      <stop offset="1" stop-color="#28E0B9"/>
    </linearGradient>
  </defs>
</svg>