<svg xmlns="http://www.w3.org/2000/svg" viewBox="0 0 32 32" fill="none">
  <circle cx="16" cy="16" r="16" fill="#FF007A"/>
  <path d="M16 6c-.5 0-1 .4-1 1s.4 1 1 1 1-.4 1-1-.4-1-1-1zm-4.5 2c-.5 0-1 .4-1 1s.4 1 1 1 1-.4 1-1-.4-1-1-1zm9 0c-.5 0-1 .4-1 1s.4 1 1 1 1-.4 1-1-.4-1-1-1zM16 10c-1.7 0-3 1.3-3 3 0 1.3.8 2.4 2 2.8v7.2c0 .6.4 1 1 1s1-.4 1-1v-7.2c1.2-.4 2-1.5 2-2.8 0-1.7-1.3-3-3-3zm-6 2c-1.1 0-2 .9-2 2s.9 2 2 2 2-.9 2-2-.9-2-2-2zm12 0c-1.1 0-2 .9-2 2s.9 2 2 2 2-.9 2-2-.9-2-2-2zm-6 8c-.6 0-1 .4-1 1v4c0 .6.4 1 1 1s1-.4 1-1v-4c0-.6-.4-1-1-1z" fill="white"/>
</svg>