<svg xmlns="http://www.w3.org/2000/svg" viewBox="0 0 40 40" fill="none">
  <circle cx="20" cy="20" r="20" fill="#FF007A"/>
  <path d="M23.5 8.5c-.2 0-.3.1-.3.3.1 1.2-.2 2.3-.9 3.2-.7.9-1.7 1.5-2.8 1.7-.2 0-.3.2-.3.4 0 .2.1.3.3.4 1.2.2 2.2.8 2.9 1.7.7.9 1 2 .9 3.2 0 .2.1.3.3.3.2 0 .3-.1.3-.3-.1-1.2.2-2.3.9-3.2.7-.9 1.7-1.5 2.9-1.7.2 0 .3-.2.3-.4 0-.2-.1-.3-.3-.4-1.2-.2-2.2-.8-2.9-1.7-.7-.9-1-2-.9-3.2 0-.2-.1-.3-.3-.3z" fill="white"/>
  <path d="M16.5 14c-3.5 0-6.5 2-6.5 5.5 0 2.5 1.5 4 3.5 5l-1 3.5c0 .2.1.3.2.3l4.5-3.5c.5 0 1 .1 1.5.1 3.5 0 6.5-2 6.5-5.5S20 14 16.5 14z" fill="white"/>
</svg>
